<svg width="553" height="180" xmlns="http://www.w3.org/2000/svg">
 <g id="Layer_1">
  <title>Layer 1</title>
  <g stroke="null" fill="#535F75">
   <g id="svg_1">
    <title stroke="#FFB27C" fill="#fed136">Layer 1</title>
    <path stroke="#FFB27C" fill="#fed136" d="m81,1.06674c-7.6,1.5 -25.3,7.8 -29.1,10.3c-7.2,4.6 -10.6,7.1 -12.3,9.1c-3.5,3.9 -1,3.1 5.6,-1.9c7.3,-5.5 20.2,-11.2 29.3,-13c3.3,-0.7 7.8,-1.6 10,-2.1c10.4,-2.2 30,0.3 43.3,5.5c6.7,2.7 7.5,1.8 1.2,-1.4c-12.5,-6.4 -34.4,-9.3 -48,-6.5z"/>
    <path stroke="#FFB27C" fill="#fed136" d="m86,11.16674c-0.8,0.3 -2.2,0.8 -3,1c-1.2,0.4 -1.2,0.6 -0.1,1.4c0.8,0.4 2.5,0.4 3.8,-0.1c3.6,-1.3 16,-1.1 22.8,0.5c4.3,1.1 6.2,1.1 6.7,0.3c0.5,-0.8 1.3,-0.8 3.2,0.1c1.4,0.6 2.8,0.7 3.1,0.2c1.1,-1.7 -6.3,-3 -20.5,-3.5c-8,-0.2 -15.2,-0.2 -16,0.1z"/>
    <path stroke="#FFB27C" fill="#fed136" d="m136,12.96674c0,0.2 0.7,0.6 1.5,1c0.8,0.3 1.5,0.1 1.5,-0.4c0,-0.6 -0.7,-1 -1.5,-1c-0.8,0 -1.5,0.2 -1.5,0.4z"/>
    <path stroke="#FFB27C" fill="#fed136" d="m73.8,15.76674c-1.6,0.5 -2.8,1.4 -2.8,1.8c0,0.5 1.4,0.4 3,-0.1c1.7,-0.6 3,-1.5 3,-2c0,-0.5 -0.1,-0.9 -0.2,-0.8c-0.2,0 -1.5,0.5 -3,1.1z"/>
    <path stroke="#FFB27C" fill="#fed136" d="m126.4,16.06674c1.1,0.8 2.5,1.5 3,1.5c0.6,0 0.2,-0.7 -0.8,-1.5c-1.1,-0.8 -2.5,-1.5 -3,-1.5c-0.6,0 -0.2,0.7 0.8,1.5z"/>
    <path stroke="#FFB27C" fill="#fed136" d="m132.6,23.36674c2,1.8 10.4,6.2 10.4,5.5c-0.1,-1.5 -7.3,-6.3 -9.4,-6.3c-1.1,0 -1.6,0.4 -1,0.8z"/>
    <path stroke="#FFB27C" fill="#fed136" d="m98.7,28.36674c-2.2,2.1 -2.7,2.3 -2.7,0.9c0,-0.9 -0.4,-1.7 -0.9,-1.7c-1.5,0 -2,2.5 -1.4,6.9c0.7,4.9 -0.5,5.3 -4,1.1c-3.5,-4.1 -5.4,-3.9 -2.8,0.3c1.1,1.9 1.8,3.7 1.4,4.1c-0.4,0.3 0.3,1.3 1.5,2.2c2.5,1.7 3.2,8.4 0.9,8.4c-2.9,0 -11,-11.2 -10.6,-14.7c0,-0.4 -0.4,-0.9 -1,-1.1c-0.6,-0.2 -1.1,0.6 -1.1,1.7c0,1.3 -0.5,1.9 -1.4,1.5c-0.9,-0.3 -1.3,0.3 -1.3,1.9c0,1.8 0.9,2.9 3.4,4.1c1.9,0.9 3.1,2.1 2.7,2.7c-0.7,1.2 -2,0.9 -7.6,-1.5c-2.3,-1 -3.8,-1.2 -3.8,-0.6c0,0.6 0.8,1.3 1.8,1.6c0.9,0.3 2.5,1 3.6,1.6c1,0.5 3.6,1.6 5.7,2.4c4.2,1.4 10.9,6.1 10.9,7.5c0,0.5 -1.8,0.9 -4,0.9c-2.9,0 -4.2,-0.5 -5,-2.1c-0.9,-1.6 -1.4,-1.8 -2.5,-0.9c-1.1,0.9 -1.8,0.5 -3.6,-1.9c-1.2,-1.7 -3.6,-3.5 -5.2,-4.1c-3.7,-1.2 -3.7,-1.2 -3.7,0c0,0.6 1.1,1.5 2.5,2c1.4,0.5 2.9,2 3.4,3.2c0.5,1.3 2.4,3 4.2,3.9c12.9,6 14.9,7.9 8.1,7.9c-4.9,0 -13.3,-4.1 -18.4,-8.9c-2.1,-1.9 -4.1,-3.1 -4.5,-2.7c-0.5,0.5 2.1,3.5 5.7,6.7c3.6,3.2 5.9,5.9 5.2,5.9c-1.9,0 -8.6,-3.6 -10.2,-5.5c-1.8,-2.2 -11,-6.8 -11.8,-5.9c-0.4,0.4 -0.2,0.9 0.4,1.1c1.2,0.4 7.9,4.8 13.2,8.8c1.8,1.3 5.9,2.9 9,3.5c3.1,0.5 7.7,1.6 10.2,2.3c4.2,1.2 4.5,1.5 4.8,5.1c0.2,2.1 -0.1,4.3 -0.7,4.9c-1.7,1.7 -1.3,5.5 0.7,6c3.6,1 13.7,0.5 14.4,-0.6c0.4,-0.7 0.8,-3.4 0.8,-6l0,-4.8l7,-3.4c3.9,-1.8 9.4,-3.6 12.3,-4c5.5,-0.8 8.7,-2 8.7,-3.4c0,-1 -12.4,1.2 -17.6,3.1c-4.5,1.6 -5.5,0.3 -1.9,-2.8l3,-2.5l-4.2,2.1c-6.4,3 -9.7,2.4 -5.5,-1.2c1.8,-1.5 10.6,-3.8 14.8,-3.8c4.1,0 12.7,-5 11.2,-6.5c-0.2,-0.3 -2.6,0.7 -5.3,2c-2.6,1.4 -6.5,2.5 -8.4,2.5l-3.6,-0.1l2.3,-1.9c1.3,-1.1 2.1,-2.4 1.7,-2.9c-0.3,-0.6 0.3,-1.6 1.5,-2.3c1.1,-0.7 2,-1.6 2,-2.1c0,-1.2 -4,1.2 -9.1,5.5c-5,4.2 -9.9,5.2 -9.9,2c0,-2 2.9,-5.2 4.7,-5.2c1.6,0 11.1,-6.1 15.2,-9.7c4.6,-4.1 1.9,-4.3 -2.9,-0.3c-3.3,2.9 -7,4 -7,2.1c0,-0.6 1,-1.7 2.2,-2.5c2.1,-1.5 2.1,-1.6 0.3,-3.6c-2.5,-2.7 -3.5,-2.5 -3.5,0.8c0,1.8 -1,3.8 -2.8,5.5c-3.2,3.1 -4.2,2.7 -4.2,-1.5c0,-4.2 -1.7,-3.4 -2.5,1.3c-0.4,2.3 -1.2,3.8 -1.8,3.6c-1.6,-0.5 -2.8,-8.6 -1.7,-10.7c0.7,-1.3 0.6,-2 -0.3,-2.3c-0.9,-0.3 -0.8,-1.3 0.6,-4.2c1,-2 1.6,-3.9 1.4,-4.1c-0.2,-0.2 -1.5,0.9 -3,2.4z"/>
    <path stroke="#FFB27C" fill="#fed136" d="m159.1,31.56674c0.7,1.4 2.9,5 5,8c8.4,12.6 13.7,27.7 13.9,39.7c0,2.4 0.5,4.3 1,4.3c1.3,0 1.3,-2.5 0,-12.9c-0.9,-6.9 -2,-10.2 -7.1,-20.5c-3.3,-6.7 -7.8,-14.2 -10,-16.7c-2.6,-2.8 -3.6,-3.5 -2.8,-1.9z"/>
    <path stroke="#FFB27C" fill="#fed136" d="m500.00001,33.46674c-1.8,3.6 -2,5.9 -2.1,20.8c0,24 -1.2,37.9 -3.4,40.3c-1,1.1 -1.4,2.1 -0.9,2.1c2.2,0.3 5.2,-0.3 9.2,-1.7c4.8,-1.8 5.8,-3.9 1.3,-2.9c-3.4,0.7 -4.6,-0.6 -3.1,-3.5c0.6,-1 1.3,-9.5 1.7,-18.7c0.3,-9.3 0.7,-16.9 0.8,-17.1c0.2,-0.2 1.6,1.6 3.1,3.9c1.6,2.4 8.8,10.2 16,17.4c7.2,7.1 14.3,15.1 15.8,17.7c1.5,2.7 2.9,4.8 3.1,4.8c0.2,0 1.5,-2.2 2.8,-4.8c2.7,-5.4 3.3,-10.4 4.3,-38.7c0.5,-14 1,-18.4 2.2,-19.8c1.7,-1.9 1.4,-2 -3.8,-1.7c-5.8,0.3 -12.5,4.8 -6.8,4.6c3.2,-0.1 3.8,4 3.2,22.9c-0.2,8.8 -0.4,17.5 -0.4,19.3c0,1.9 -0.4,3.2 -0.8,3c-0.4,-0.2 -7.6,-7.4 -15.9,-16c-15.8,-16.4 -22.3,-25.6 -22.3,-31.6c0,-4.6 -1.7,-4.8 -4,-0.3z"/>
    <path stroke="#FFB27C" fill="#fed136" d="m213,31.46674c-5,0.5 -11,3.1 -11,4.7c0,0.4 1.1,0.3 2.4,0c4.6,-1.1 4.9,0.5 4.5,27.2c-0.4,21.5 -0.6,25.2 -2.2,27.5c-2.9,4.5 -2.3,5.7 2.8,5.7c4.5,0 13.3,-3.5 12.1,-4.8c-0.4,-0.3 -2.5,-0.5 -4.8,-0.3c-3.6,0.2 -4,0.1 -3.3,-1.6c1.9,-4.8 2.3,-9.4 2.8,-31.3c0.5,-22.4 0.6,-23.6 2.6,-24.9c2.3,-1.5 2.8,-3.2 0.9,-3c-0.7,0.1 -3.8,0.5 -6.8,0.8z"/>
    <path stroke="#FFB27C" fill="#fed136" d="m244.5,31.46674c-4.6,0.6 -11.5,3.4 -11.5,4.7c0,0.3 1.6,0.2 3.5,-0.2c6.2,-1.1 4.5,2.5 -6.4,13.8c-13.3,13.9 -13.2,13.7 -8.4,20.7c5.9,8.7 17.3,19.4 24.3,22.9c6,3 6.3,3.1 9.8,1.6c6.8,-2.8 8.2,-5.4 3,-5.4c-7.4,0 -18.3,-8.3 -28.3,-21.5c-3,-4 -5.5,-7.8 -5.5,-8.3c0,-0.5 2.3,-2.8 5,-5.1c2.8,-2.3 7.8,-7.8 11.1,-12.1c3.4,-4.3 7.4,-8.4 9,-9c2.7,-1.2 3.1,-3.2 0.6,-2.9c-0.7,0.1 -3.4,0.5 -6.2,0.8z"/>
    <path stroke="#FFB27C" fill="#fed136" d="m296.4,34.96674c-4.1,1.9 -8.9,5.2 -11.3,7.6c-8.3,8.5 -12.8,23 -10.2,32.5c0.6,2.2 2.5,6.5 4.3,9.5c2.7,4.5 4.4,6 9.6,8.7c7.3,3.8 12.7,4.2 21.2,1.7c5.3,-1.6 12,-5.5 16.9,-9.8c1.2,-1.2 3.9,-5.3 5.9,-9.1c3.4,-6.4 3.7,-7.7 3.7,-15.5c0,-7.3 -0.4,-9.2 -2.7,-13.7c-3.2,-5.9 -9.6,-11.6 -15.8,-13.8c-7,-2.5 -13.5,-1.9 -21.6,1.9zm15.6,3.7c5.3,2.4 10.2,6.8 13.8,12.4c1.8,2.9 2.6,5.7 3,10.8c0.7,9.8 -1.8,17.6 -7.5,23.3c-9,9 -19.9,8.1 -31.6,-2.5c-5.9,-5.4 -7.7,-9.7 -7.7,-18.9c0,-9.5 1.9,-15.4 6.3,-20.1c6.6,-6.9 15.4,-8.8 23.7,-5z"/>
    <path stroke="#FFB27C" fill="#fed136" d="m361.80001,33.56674c-4.6,2.5 -4.9,3.8 -0.8,3.2l3,-0.4l0,18.3c-0.1,22.6 -1.3,36.4 -3.4,38.8c-2.6,2.9 -1.9,3.4 3.7,2.8c6.7,-0.8 13,-3 13.5,-4.7c0.4,-1 -0.5,-1.2 -3.7,-0.7c-4.8,0.6 -5.4,0.1 -4.2,-4c0.5,-1.6 1.2,-13.5 1.6,-26.4c0.4,-12.9 1,-23.8 1.2,-24.3c0.8,-1.2 8.2,0 12,1.9c7.4,3.7 10,10.4 6.9,17.9c-1.5,3.6 -6,7.6 -8.6,7.6c-0.9,0 -2.5,0.9 -3.5,2c-1.8,2 -1.8,2.1 0.1,3.4c1.1,0.8 6.4,6.4 11.9,12.6c12.9,14.5 16.3,16.3 23.3,12c3.9,-2.4 4.2,-3.9 0.5,-3.2c-2.3,0.4 -4.1,-1 -15,-12.2c-6.7,-7.1 -12.3,-13.2 -12.3,-13.6c0,-0.5 1.8,-1.9 4,-3.1c5.6,-3.2 8.3,-7.8 8.4,-14.5c0,-5.8 -1.6,-9 -6.8,-12.8c-2.4,-1.8 -4.4,-2.1 -15.4,-2.3c-11.1,-0.3 -13.2,0 -16.4,1.7z"/>
    <path stroke="#FFB27C" fill="#fed136" d="m447.50001,32.56674c-8.5,0.5 -14.5,2.3 -14.5,4.2c0,0.4 1.4,0.8 3,0.8l3,0l0,12c0,10.2 -0.2,12 -1.7,12.9c-1.7,0.9 -1.7,1.1 0.1,3c1.6,1.7 1.8,3.5 1.5,14.5c-0.3,8.2 -0.8,12.9 -1.6,13.8c-2.8,2.7 -1,3.1 12,2.6c9.8,-0.3 14,-0.9 16.5,-2.2c1.7,-0.9 3.2,-1.9 3.2,-2.1c0,-0.3 -5.6,-0.2 -12.5,0.1c-6.9,0.4 -12.5,0.5 -12.5,0.2c0,-0.3 0.7,-2.2 1.5,-4.1c1,-2.4 1.5,-7 1.5,-13.7l0,-10l7.5,0c7.3,0 13.5,-1.8 13.5,-3.9c0,-1.6 -2.2,-1.8 -11.7,-1.3l-9.3,0.5l0,-11l0,-11.1l7.5,-0.7c4.1,-0.3 8.4,-0.4 9.6,0c2.4,0.8 8.9,-2.3 8.9,-4.2c0,-1.4 -8.3,-1.5 -25.5,-0.3z"/>
    <path stroke="#FFB27C" fill="#fed136" d="m26.6,35.06674c-0.3,0.8 -0.1,1.5 0.3,1.5c0.5,0 1.1,-0.7 1.5,-1.5c0.3,-0.8 0.1,-1.5 -0.3,-1.5c-0.5,0 -1.1,0.7 -1.5,1.5z"/>
    <path stroke="#FFB27C" fill="#fed136" d="m148.7,37.16674c-0.3,0.3 1.6,3.4 4.2,6.9c5.4,7 11.4,19 12.5,24.7c0.4,2.1 1.1,3.8 1.6,3.8c0.6,0 1,0.7 1,1.6c0,0.8 0.5,1.2 1.1,0.8c0.6,-0.3 0.8,-1.7 0.4,-3.2c-1,-4 -12.1,-25.8 -15.6,-30.7c-3.2,-4.5 -4,-5.1 -5.2,-3.9z"/>
    <path stroke="#FFB27C" fill="#fed136" d="m20.1,44.76674c-4.5,8.3 -8.3,17.6 -7.8,19.1c0.1,0.5 1.5,-1.9 3,-5.4c2.8,-6.5 4.1,-9 8.4,-16.7c1.4,-2.3 2,-4.2 1.5,-4.2c-0.6,0 -2.9,3.3 -5.1,7.2z"/>
    <path stroke="#FFB27C" fill="#fed136" d="m169.7,82.26674c0.6,4.1 1,5 1.9,4c0.9,-0.8 -0.5,-7.7 -1.5,-7.7c-0.5,0 -0.7,1.7 -0.4,3.7z"/>
    <path stroke="#FFB27C" fill="#fed136" d="m5,85.96674c0,0.8 0.5,1.8 1,2.1c0.6,0.3 1,-0.3 1,-1.4c0,-1.2 -0.4,-2.1 -1,-2.1c-0.5,0 -1,0.6 -1,1.4z"/>
    <path stroke="#FFB27C" fill="#fed136" d="m9.7,86.96674c-0.8,1.9 1.1,16.1 2.9,22.6c2.8,9.7 10,23.2 17.9,33c4.6,5.7 8.5,9.6 9.8,9.8c1.2,0.2 3.3,1.4 4.8,2.6c4,3.4 18.6,10.3 25.4,12.1c5,1.3 11.2,2.3 17.2,2.7c0.6,0.1 0.9,0.7 0.7,1.3c-0.4,0.9 1.2,0.9 6.3,0.3c16.5,-2.1 33.1,-8 44.1,-15.5c6.5,-4.5 6,-5.6 -0.7,-1.4c-2.8,1.7 -6.1,3.2 -7.4,3.5c-1.3,0.2 -5,1.8 -8.3,3.4c-10.4,5.3 -30.7,7.7 -42.1,5.1c-10.8,-2.4 -16.2,-4.2 -23.8,-7.9c-15,-7.3 -30.4,-22.6 -33.9,-33.5c-0.9,-3 -2.2,-5.5 -2.7,-5.5c-0.6,0 -0.8,-0.4 -0.4,-0.9c0.3,-0.6 -0.1,-1.3 -0.8,-1.8c-2.7,-1.6 -6.7,-17.4 -6.7,-26.6c0,-4.5 -1.2,-6.2 -2.3,-3.3z"/>
    <path stroke="#FFB27C" fill="#fed136" d="m30.5,89.56674c-0.3,0.6 0,1.2 0.7,1.5c2.6,1 54.3,0 54.1,-1c-0.4,-1.4 -53.9,-1.9 -54.8,-0.5z"/>
    <path stroke="#FFB27C" fill="#fed136" d="m107.5,89.56674c-0.3,0.5 0.4,1.2 1.7,1.5c4.1,1 46.3,0.1 46.3,-1c0,-1.4 -47.1,-1.9 -48,-0.5z"/>
    <path stroke="#FFB27C" fill="#fed136" d="m174,91.16674c0,1.4 -0.4,2.3 -0.9,2c-1.4,-0.9 -2.1,2.1 -2.1,9.5c0,5.3 -0.7,8.6 -3.1,14.6c-3.2,8.2 -8.9,18.3 -12.1,21.5c-1.1,1.1 -1.7,2.3 -1.3,2.6c0.3,0.4 1.5,-0.4 2.5,-1.8c2.9,-3.9 3.4,-1.7 0.5,2.5c-1.4,2.1 -2.3,4 -2,4.3c0.8,0.8 2.7,-2.2 7.4,-11.6c2.4,-4.8 4.7,-9.5 5.2,-10.4c0.5,-1 0.9,-2.2 0.9,-2.8c0,-0.6 0.8,-2.9 1.9,-5.3c1,-2.3 2.4,-6 3,-8.2c1.5,-5.2 3.1,-17.6 2.5,-18.7c-1.1,-1.7 -2.4,-0.7 -2.4,1.8z"/>
    <path stroke="#FFB27C" fill="#fed136" d="m184,90.06674c0,0.8 0.5,1.5 1,1.5c0.6,0 1,-0.7 1,-1.5c0,-0.8 -0.4,-1.5 -1,-1.5c-0.5,0 -1,0.7 -1,1.5z"/>
    <path stroke="#FFB27C" fill="#fed136" d="m96.3,91.56674c-3.9,0.3 -7.5,0.8 -7.9,1.3c-0.4,0.4 -0.2,2.2 0.4,4c1.6,4.3 1.5,8.2 0,9.4c-0.7,0.6 -3.8,1.6 -6.8,2.3c-12.8,2.8 -14.5,3.5 -19.6,7.6c-2.9,2.4 -6.4,4.6 -7.9,5c-3.1,0.8 -4.3,2.4 -1.8,2.4c1.9,0 8.5,-3.6 15.1,-8.3c2.2,-1.6 4.9,-2.7 5.8,-2.5c1.4,0.2 0.9,1 -2.4,3.4c-4.5,3.3 -8.8,8.2 -7.9,9c0.3,0.3 2.1,-1.1 4.1,-3.1c2,-2 5.1,-4.3 6.9,-5.1c1.8,-0.8 4.3,-2.2 5.7,-2.9c1.4,-0.8 3.9,-1.5 5.6,-1.5c6.9,0 4.9,2.8 -5.2,7.4c-5.3,2.5 -7.2,3.9 -7.1,5.2c0.1,1.1 -0.9,2.4 -2.6,3.2c-1.5,0.7 -2.5,1.7 -2.2,2.2c0.9,1.5 7.2,-2.1 8.4,-4.7c0.9,-2 1.7,-2.4 3.5,-1.9c1.6,0.4 2.6,0.1 2.9,-0.8c0.7,-1.8 6.6,-3.1 8,-1.7c0.7,0.7 0.6,1.5 -0.3,2.6c-1.6,1.9 -17.2,9.5 -19.4,9.5c-0.9,0 -1.6,0.4 -1.6,1c0,1.5 2.7,1.2 6.1,-0.6c1.7,-0.8 3.8,-1.4 4.7,-1.1c1.3,0.2 0.7,0.9 -2,2.6c-4.1,2.5 -4.5,3.3 -2.5,5.3c0.7,0.7 1.6,2.1 2,3.1c1,2.6 2.7,1.1 2.7,-2.2c0,-4.1 8,-13.9 10.1,-12.5c0.5,0.3 0.9,2.1 0.9,3.9c0,2.4 -0.6,3.8 -2,4.5c-1.1,0.6 -2,2 -2,3.1c0,1.1 -0.7,3.1 -1.6,4.4c-2.4,3.6 0.1,3.2 3.3,-0.5c1.3,-1.7 2.9,-3 3.4,-3c0.4,0 0.7,2.3 0.6,5.1c-0.1,3.4 0.2,5.3 1.1,5.6c0.6,0.3 1.2,-0.2 1.2,-1.1c0,-2.4 1.6,-1.9 3.5,1c2.4,3.6 2.9,2.3 0.8,-2c-1.5,-3.1 -1.5,-3.9 -0.3,-4.6c1.1,-0.6 1.1,-1.2 0.2,-2.2c-1.4,-1.7 -0.3,-9.9 1.4,-10.5c0.7,-0.2 1.4,1.4 1.8,3.7c0.7,4.6 2.6,5.4 2.6,1.1c0,-4.2 1.3,-4.5 4.5,-1.1c1.9,1.9 2.6,3.6 2.2,4.9c-0.8,3.1 1.1,3.6 3.8,1.1l2.4,-2.2l-2.7,-2.4c-2.6,-2.2 -2.6,-2.3 -0.6,-2.4c1.2,0 3.8,1.3 5.9,3c2.1,1.6 4.5,3 5.3,3c2.1,0 -4,-5.3 -9.3,-8.1c-2.2,-1.2 -4.4,-2.8 -4.8,-3.5c-0.4,-0.8 -1.8,-1.4 -3.1,-1.4c-2.6,0 -5.6,-2.8 -5.6,-5.4c0,-2.2 2.8,-3.2 4.9,-1.8c0.9,0.7 2.6,1.6 3.7,2.1c1.2,0.6 2.8,1.8 3.5,2.9c1.9,2.6 6.6,5.5 8.1,5c0.7,-0.3 -0.1,-1.2 -2,-2.2c-1.9,-1 -3.1,-2.3 -2.9,-3c0.3,-0.7 -0.4,-1.8 -1.4,-2.4c-1,-0.7 -1.9,-1.7 -1.9,-2.2c0,-1.7 4.8,-1.1 10.5,1.5c3.4,1.5 5.5,2 5.2,1.2c-0.8,-2.4 -6.8,-4.9 -15.4,-6.3c-8.5,-1.3 -12.2,-3.1 -10.9,-5.3c0.5,-0.7 2,-0.4 4.6,0.9c5.2,2.7 7.4,2.5 3,-0.2c-5,-3.1 -2.3,-3.3 8,-0.8c4.9,1.3 9.6,2 10.6,1.6c2.5,-1 1.3,-1.6 -6.3,-3.1c-7,-1.5 -15.5,-4.8 -18.5,-7.4c-1.3,-1 -1.8,-2.9 -1.8,-6.7c0,-2.9 -0.3,-5.4 -0.7,-5.6c-0.5,-0.2 -4,-0.1 -8,0.2z"/>
    <path stroke="#FFB27C" fill="#fed136" d="m-1,94.56674c0,1.1 0.5,2 1,2c0.6,0 1,-0.9 1,-2c0,-1.1 -0.4,-2 -1,-2c-0.5,0 -1,0.9 -1,2z"/>
    <path stroke="#FFB27C" fill="#fed136" d="m16.2,104.46674c0.4,1.3 1.8,1.6 1.9,0.4c0,-0.4 -0.5,-0.9 -1.1,-1.2c-0.7,-0.2 -1.1,0.2 -0.8,0.8z"/>
    <path stroke="#FFB27C" fill="#fed136" d="m181.6,106.76674c-0.2,0.7 -1,4.2 -1.6,7.7c-0.6,3.6 -2.9,10.4 -5,15.3c-4.4,10.3 -3.8,11.9 0.8,2c4.9,-10.5 8.8,-24.7 7.1,-25.8c-0.5,-0.3 -1.1,0.1 -1.3,0.8z"/>
    <path stroke="#FFB27C" fill="#fed136" d="m161.5,111.16674c-1.6,6.9 -6.2,16.9 -12.1,25.9c-0.9,1.4 -1.2,2.5 -0.8,2.5c0.9,0 1.6,-1 7.6,-11.2c4,-6.7 7.8,-17.2 6.8,-18.9c-0.6,-0.9 -1,-0.5 -1.5,1.7z"/>
    <path stroke="#FFB27C" fill="#fed136" d="m273.3,124.66674c-5.5,2.1 -12.3,8.8 -12.3,12c0,1 -0.4,2 -0.9,2.3c-1.3,0.8 -0.3,7.4 1.6,10.2c3.8,5.8 12.2,7 20.3,2.9c4.9,-2.5 6.7,-4.1 5.6,-5.2c-0.3,-0.3 -1.9,0.6 -3.6,2c-5.5,4.7 -14.7,4.8 -19,0.2c-2,-2.1 -2.2,-3.2 -1.8,-8.6c0.4,-5.9 0.7,-6.5 4.7,-10c6.5,-5.8 16.6,-6.6 16.6,-1.4c0,3.5 2.3,2.6 2.7,-1c0.5,-4.2 0.6,-4.1 -4.7,-4.9c-2.8,-0.4 -5.6,0.1 -9.2,1.5z"/>
    <path stroke="#FFB27C" fill="#fed136" d="m338.3,123.66674c-3.8,1.1 -7.6,5.6 -6.9,8.2c0.3,1.1 -0.2,3 -1.1,4.3c-1.2,2 -1.3,2.4 -0.2,2.5c2.3,0.2 3.3,0.5 5.2,1.3c2.7,1.3 3.3,-0.1 1,-2.7c-2.9,-3.2 -3.4,-6.3 -1.4,-8.9c1.4,-1.7 3.2,-2.3 7.8,-2.6c7,-0.5 8.1,0.4 5.7,4.9c-0.9,1.8 -2.5,6.4 -3.6,10.3c-1.1,3.9 -2.4,7.6 -3,8.3c-1.9,2.3 1,4.1 7.6,4.8c7.3,0.8 12.5,-0.9 15.1,-4.8c2.1,-3.2 0.8,-5.9 -3.6,-7.7l-3.2,-1.3l3.4,-2.8c3,-2.4 3.3,-3 2.4,-5.6c-0.6,-1.6 -2.4,-3.5 -4.3,-4.5c-1.9,-0.9 -3.9,-2.4 -4.7,-3.4c-1.1,-1.5 -1.5,-1.6 -2.9,-0.5c-1.2,1 -2.3,1.1 -4.7,0.2c-3.7,-1.3 -4.2,-1.3 -8.6,0zm20.3,6.2c1.7,1.5 2.5,3 2.1,4c-0.8,2.2 -4.6,4.5 -8.6,5.3l-3.3,0.7l0.5,-3.7c0.6,-4.3 3.2,-8.6 5.2,-8.6c0.7,0 2.6,1.1 4.1,2.3zm1.4,13c3.1,1.6 3.8,5.4 1.3,7.2c-2.6,1.9 -7.4,2.7 -12.3,1.9c-4.2,-0.7 -4.2,-0.7 -3.5,-4.3c0.4,-2 1.1,-4.2 1.7,-4.9c1.3,-1.6 9.6,-1.5 12.8,0.1z"/>
    <path stroke="#FFB27C" fill="#fed136" d="m412.50001,124.96674c-6.8,2.2 -10.3,4.5 -13,8.3c-2.9,4.4 -3.3,10.8 -1,15.2c2.6,5.1 11.4,6.6 17.3,3.1c3.8,-2.4 4.2,-3.3 0.6,-2c-1.4,0.6 -5,1 -7.9,1c-6.6,0 -8.5,-2.1 -8.5,-9.2c0,-4.1 0.5,-5.4 3.6,-8.8c3.9,-4.3 8.2,-6 15.1,-6c3,0 4.5,0.5 5.2,1.7c0.7,1.3 1.3,1.5 2.1,0.7c1.1,-1.1 -0.8,-3.5 -3.4,-4.1c-4.5,-1.1 -6.6,-1.1 -10.1,0.1z"/>
    <path stroke="#FFB27C" fill="#fed136" d="m295.7,129.96674c-0.3,0.8 -0.3,1.7 0,2c0.9,0.9 3.4,-1.5 2.7,-2.5c-0.8,-1.3 -2.1,-1.1 -2.7,0.5z"/>
    <path stroke="#FFB27C" fill="#fed136" d="m450.50001,129.66674c-1,1.5 0.1,2.3 2,1.5c0.9,-0.3 1.3,-1 1,-1.6c-0.8,-1.3 -2.2,-1.3 -3,0.1z"/>
    <path stroke="#FFB27C" fill="#fed136" d="m457.00001,131.96674c-0.5,1.3 -1.3,2.7 -1.9,3c-0.6,0.4 -0.8,1.9 -0.5,3.4c0.3,1.5 -0.2,4.7 -1.1,7.1c-1,2.9 -1.2,4.8 -0.6,5.4c1.5,1.5 4.4,-1.2 3.2,-2.7c-1.4,-1.6 1,-9.2 3.3,-10.9c1.3,-1 1.5,-1.6 0.7,-2.1c-0.6,-0.4 -0.8,-1.8 -0.5,-3.2c0.8,-3.2 -1.3,-3.2 -2.6,0z"/>
    <path stroke="#FFB27C" fill="#fed136" d="m302.7,135.66674c-2.7,1.6 -4.7,6.4 -4.7,11.2c0,3 -1,6.2 -3.1,10.1c-2.5,4.6 -2.9,6 -1.9,7.1c1.6,2 4.1,1.9 8.5,-0.2c5.1,-2.4 5.5,-5.4 1.6,-10.9l-3.1,-4.4l2.5,-1.2c2.7,-1.2 4.3,-4.7 4.8,-10.3c0.2,-2.2 -2,-2.9 -4.6,-1.4zm2.3,4.7c0,3.5 -3.6,7.4 -4.6,4.9c-0.6,-1.7 2.1,-7.7 3.6,-7.7c0.6,0 1,1.3 1,2.8zm-3.2,14.4c3.1,3.1 -1.2,10 -5.3,8.4c-2,-0.7 -1.9,-2.5 0.5,-6.4c2.1,-3.5 3,-3.8 4.8,-2z"/>
    <path stroke="#FFB27C" fill="#fed136" d="m313.9,136.36674c-2.2,1.5 -5.9,9.2 -5.9,12.3c0,2.3 2.3,2.5 4,0.4c1,-1.2 1,-1.5 -0.4,-1.5c-0.9,0 -1.6,-0.6 -1.6,-1.3c0,-2.1 5,-8.7 6.5,-8.7c2,0 1.9,1.2 -0.4,5.2c-1.4,2.4 -1.7,3.9 -1,5.5c1.4,3.7 2.6,2.6 3.2,-2.9c0.4,-2.8 1.1,-5.6 1.7,-6.2c3,-3 -2.3,-5.5 -6.1,-2.8z"/>
    <path stroke="#FFB27C" fill="#fed136" d="m372.70001,135.66674c-2.3,1.3 -5.6,8.5 -5.7,12c0,1.5 0.7,3.2 1.5,3.9c2.1,1.8 2.9,0.6 1.4,-1.9c-1.1,-1.7 -1.1,-2.8 0.2,-6.3c1.8,-4.9 4.9,-6.5 4.9,-2.4c0,1.3 -0.4,3.6 -1,5c-0.6,1.6 -0.6,2.6 0,2.6c1.7,0 3.8,-9.3 2.7,-11.8c-1.2,-2.5 -1.5,-2.6 -4,-1.1z"/>
    <path stroke="#FFB27C" fill="#fed136" d="m465.50001,136.86674c-1.4,1.2 -3.4,4.5 -4.5,7.4c-1.6,4.3 -1.7,5.3 -0.6,6.3c1.8,1.4 3,-0.3 2.1,-3.1c-0.8,-2.4 3.7,-9.9 6,-9.9c2,0 1.9,1.6 -0.5,5.5c-1.6,2.6 -1.8,3.8 -1,6c1.1,3 3.5,2.4 2.6,-0.8c-0.2,-1.1 0.3,-4.2 1.4,-6.8c1,-2.7 1.5,-5.1 1.2,-5.2c-2.9,-1.5 -4.4,-1.4 -6.7,0.6z"/>
    <path stroke="#FFB27C" fill="#fed136" d="m490.00001,136.66674c-3,1.9 -3.4,1.9 -4.2,0.5c-1.1,-2 -3.4,-2.1 -4.1,-0.2c-0.4,0.9 0.2,1.7 1.4,2.1c1,0.4 1.9,1.3 1.9,2.1c0,0.8 1.2,2.7 2.8,4.1c1.5,1.4 2.2,2.8 1.6,3c-0.6,0.2 -2,1 -3,1.8c-1.7,1.3 -1.7,1.4 -0.2,1.5c0.9,0 2.9,-1.1 4.4,-2.4l2.8,-2.3l-2.7,-2.3c-3.1,-2.7 -3.4,-4.2 -1.1,-6.1c1.3,-1.1 1.7,-1 2.6,0.4c1.1,2.1 2.8,1.3 2.8,-1.3c0,-2.9 -1.3,-3.1 -5,-0.9z"/>
    <path stroke="#FFB27C" fill="#fed136" d="m293.2,138.26674c-3.7,9.6 -3.9,15 -0.7,12.3c0.9,-0.7 1.3,-2 1,-3c-0.3,-0.9 0.1,-3.3 1,-5.3c0.8,-2 1.5,-4.3 1.5,-5.2c0,-2.4 -1.7,-1.7 -2.8,1.2z"/>
    <path stroke="#FFB27C" fill="#fed136" d="m324.6,136.46674c-0.4,0.5 -1,2.9 -1.5,5.3c-0.5,2.4 -1.3,5.3 -1.6,6.5c-1.3,4.2 1.2,2.4 3.8,-2.7c1.6,-3 2.2,-5.2 1.6,-5.6c-0.6,-0.3 -0.8,-1.2 -0.5,-2c0.6,-1.6 -1,-2.9 -1.8,-1.5z"/>
    <path stroke="#FFB27C" fill="#fed136" d="m386.30001,137.76674c-2,1.9 -2.3,2 -2.9,0.5c-0.3,-0.9 -1.2,-1.7 -2,-1.7c-1.7,0 -1.9,1.6 -0.3,2.6c0.6,0.3 0.9,1.9 0.5,3.4c-0.3,1.9 -0.1,3 0.9,3.4c0.8,0.3 1.5,1.6 1.5,3c0,1.4 0.4,2.7 0.9,3.1c1.8,1 2.2,-1.4 1,-5.5c-1.2,-3.8 -1.1,-4.2 1.4,-6.8c4.1,-4.3 3.1,-6.2 -1,-2z"/>
    <path stroke="#FFB27C" fill="#fed136" d="m434.50001,137.26674c-0.4,1 -1.1,3.4 -1.5,5.3c-0.5,1.9 -1.2,4.5 -1.5,5.7c-1,3.2 1.2,3 4.7,-0.4c2.3,-2.2 2.8,-2.4 2.8,-0.9c0,0.9 -0.5,2.6 -1.1,3.8c-0.9,1.7 -0.8,1.9 0.8,1.6c1.3,-0.2 2,-1.6 2.4,-4.8c0.4,-2.5 1.2,-5.8 1.8,-7.3c1.4,-3.5 1.4,-4.7 0.1,-4.7c-0.5,0 -1.6,1.5 -2.3,3.2c-0.8,1.8 -2.4,4.2 -3.6,5.2c-2.1,1.9 -2.1,1.9 -2.1,0c0.1,-1 0.7,-3 1.5,-4.4c1.8,-3.2 1.8,-4 0.1,-4c-0.8,0 -1.7,0.8 -2.1,1.7z"/>
    <path stroke="#FFB27C" fill="#fed136" d="m448.00001,137.46674c-0.5,1.1 -1,2.7 -1,3.6c0,0.9 -0.7,3 -1.6,4.6c-1.8,3.6 -1.2,6.2 1.1,5.2c1.1,-0.3 1.5,-1.3 1.2,-2.5c-0.3,-1.1 0.3,-4 1.4,-6.5c1,-2.4 1.9,-4.9 1.9,-5.4c0,-1.6 -1.9,-1 -3,1z"/>
    <path stroke="#FFB27C" fill="#fed136" d="m476.40001,136.76674c-0.5,0.7 -1.1,3.3 -1.5,5.8c-0.3,2.5 -1,5.3 -1.4,6.2c-0.4,1.1 -0.3,1.8 0.4,1.8c1.6,0 5,-8.3 4.7,-11.4c-0.3,-3.2 -1.2,-4.1 -2.2,-2.4z"/>
    <path stroke="#FFB27C" fill="#fed136" d="m16.1,139.56674c0.9,1.3 2.2,2.6 3,2.9c1.1,0.3 1,-0.1 -0.2,-1.9c-0.9,-1.3 -2.2,-2.6 -3,-2.9c-1.1,-0.3 -1,0.1 0.2,1.9z"/>
    <path stroke="#FFB27C" fill="#fed136" d="m412.70001,139.16674c-1.4,1.5 0.6,2.4 5.4,2.4c3.6,0 4.9,0.4 4.9,1.4c0,0.8 -0.5,1.8 -1,2.1c-0.6,0.3 -0.7,1.7 -0.4,3c0.7,2.8 -3.5,10.5 -7.3,13.5c-2.7,2.1 -7.8,2.7 -8.8,1c-0.8,-1.3 -2.5,-1.3 -2.5,0c0,0.5 1.4,1.7 3,2.5c2.8,1.5 3.4,1.4 7.4,-0.3c3.3,-1.5 5,-3.2 7.4,-7.3c1.6,-3 3.6,-7.4 4.2,-9.9c0.7,-2.5 1.9,-5.3 2.7,-6.3c0.9,-0.9 1.4,-1.7 1.2,-1.8c-2.8,-0.6 -15.7,-0.8 -16.2,-0.3z"/>
    <path stroke="#FFB27C" fill="#fed136" d="m167.6,143.06674c-0.3,0.8 -0.1,1.5 0.4,1.5c0.6,0 1,-0.7 1,-1.5c0,-0.8 -0.2,-1.5 -0.4,-1.5c-0.2,0 -0.6,0.7 -1,1.5z"/>
    <path stroke="#FFB27C" fill="#fed136" d="m143.5,144.56674c-1,1.1 -1.4,2 -0.9,2c0.5,0 1.5,-0.9 2.2,-2c0.7,-1.1 1.1,-2 0.9,-2c-0.2,0 -1.2,0.9 -2.2,2z"/>
    <path stroke="#FFB27C" fill="#fed136" d="m21,145.46674c1.2,2.4 6.1,6.3 6.8,5.6c0.7,-0.6 -5.8,-7.5 -7,-7.5c-0.5,0 -0.4,0.9 0.2,1.9z"/>
    <path stroke="#FFB27C" fill="#fed136" d="m147.5,147.56674c-0.3,0.5 -0.2,1 0.4,1c0.5,0 1.3,-0.5 1.6,-1c0.3,-0.6 0.2,-1 -0.4,-1c-0.5,0 -1.3,0.4 -1.6,1z"/>
    <path stroke="#FFB27C" fill="#fed136" d="m375.50001,150.66674c-2.6,3.2 -2.7,4.6 -0.3,3.6c1.7,-0.6 5.2,-6.7 3.9,-6.7c-0.5,0 -2.1,1.4 -3.6,3.1z"/>
    <path stroke="#FFB27C" fill="#fed136" d="m33.2,155.76674c0.5,1.5 2.8,2.3 2.8,1c0,-0.5 -0.7,-1.3 -1.6,-1.6c-1,-0.4 -1.4,-0.1 -1.2,0.6z"/>
    <path stroke="#FFB27C" fill="#fed136" d="m138.4,162.06674c-1.7,1.3 -1.7,1.4 -0.2,1.5c0.9,0 2,-0.5 2.3,-1.1c1.1,-1.7 0,-2 -2.1,-0.4z"/>
    <path stroke="#FFB27C" fill="#fed136" d="m48.7,162.86674c-0.5,1.3 2.8,3.1 16.6,9.1c3.1,1.4 5.7,2.1 5.7,1.6c0,-1.2 -3.2,-2.9 -9.4,-5.2c-2.6,-0.9 -6.3,-2.9 -8.1,-4.3c-3.9,-2.9 -4.1,-3 -4.8,-1.2z"/>
    <path stroke="#FFB27C" fill="#fed136" d="m128.5,168.16674c-3.5,2.8 -2.2,3.2 1.8,0.5c1.6,-1 2.5,-2.1 2,-2.4c-0.4,-0.3 -2.2,0.6 -3.8,1.9z"/>
    <path stroke="#FFB27C" fill="#fed136" d="m128.3,173.26674c-1.3,0.2 -2.3,0.9 -2.3,1.4c0,1.2 1,1.1 4,-0.6c2.5,-1.5 2.3,-1.6 -1.7,-0.8z"/>
    <path stroke="#FFB27C" fill="#fed136" d="m73.4,175.46674c0.3,0.5 2.9,1.6 5.6,2.5c7.2,2.4 34,2.4 34,0.1c0,-0.6 -4.9,-0.9 -13.3,-0.7c-9.8,0.3 -14.8,0 -19.3,-1.2c-7.2,-1.9 -7.7,-1.9 -7,-0.7z"/>
   </g>
  </g>
 </g>

</svg>